<svg width="17" height="14" xmlns="http://www.w3.org/2000/svg"><path d="M10.235 1.56A4.99 4.99 0 008.905.446 5.804 5.804 0 0111.138 0c1.95 0 3.696 1.025 4.475 2.635.025.083.034.21-.01.233-.077.041-.087.047-.29-.155-1.53-1.594-3.696-1.418-3.774-1.41a3.45 3.45 0 00-1.304.258zm6.722 4.39c.05.435.043.68.043.683v.004c0 3.653-2.684 6.625-5.982 6.625a5.484 5.484 0 01-2.191-.458 6.355 6.355 0 001.52-1.195c.295.088.606.135.928.135 1.624 0 2.867-1.066 3.41-2.92.067-.206.386-1.246.056-1.561-.269-.256-.468-.299-.948-.403l-.295-.065a8.664 8.664 0 00-.432-.085c-.38-.067-.38-.07-.38-.24 0-.35.035-.788.039-.837.014-.013.083-.062.32-.055.47.014 3.424-.005 3.56-.006.052-.004.31-.003.352.379zm-9.624.573c0 1.555.463 2.91 1.225 3.849a2.862 2.862 0 01-1.711 1.025C5.716 10.191 5.01 8.501 5.01 6.632c0-2.023.813-3.818 2.111-5.03.515.041 1.295.18 2.05.61-1.109.941-1.838 2.523-1.838 4.311zM6.113.015c1.943 0 3.684 1.022 4.461 2.626.023.076.03.196-.003.214-.07.037-.078.04-.273-.153C8.763 1.103 6.591 1.28 6.514 1.287c-2.328 0-4.221 2.35-4.221 5.236 0 2.985 1.7 5.237 3.957 5.237 1.631 0 2.88-1.07 3.423-2.931.096-.291.382-1.264.053-1.577-.272-.259-.472-.302-.955-.407l-.295-.065a8.521 8.521 0 00-.433-.085c-.368-.065-.368-.065-.368-.226 0-.336.033-.756.04-.829.018-.013.092-.053.304-.046.47.013 3.425-.006 3.564-.007.03-.003.291-.018.334.365.049.434.042.678.042.68v.005c0 3.645-2.677 6.61-5.967 6.61C2.688 13.247 0 10.279 0 6.632 0 2.993 2.634.088 5.996.017l.117-.002z" fill="#E5DFD9" fill-rule="evenodd"/></svg>